<?xml version="1.0" standalone="no"?>
<!DOCTYPE svg PUBLIC "-//W3C//DTD SVG 20010904//EN"
 "http://www.w3.org/TR/2001/REC-SVG-20010904/DTD/svg10.dtd">
<svg version="1.0" xmlns="http://www.w3.org/2000/svg"
 width="1085.000000pt" height="1085.000000pt" viewBox="0 0 1085.000000 1085.000000"
 preserveAspectRatio="xMidYMid meet">
<metadata>
Created by potrace 1.14, written by Peter Selinger 2001-2017
</metadata>
<g transform="translate(0.000000,1085.000000) scale(0.100000,-0.100000)"
fill="#000000" stroke="none">
<path d="M5115 9479 c-1156 -95 -2165 -633 -2890 -1539 -95 -118 -283 -401
-360 -539 -680 -1225 -680 -2727 0 -3952 80 -145 267 -423 370 -552 377 -469
828 -836 1356 -1101 445 -223 880 -353 1384 -412 212 -25 681 -25 890 0 495
59 916 183 1350 396 1166 574 1988 1673 2209 2955 75 438 75 942 0 1380 -221
1282 -1043 2381 -2209 2955 -432 212 -861 339 -1345 395 -161 19 -599 27 -755
14z m665 -1524 c279 -43 513 -116 755 -234 254 -125 467 -274 664 -465 370
-361 622 -821 721 -1316 39 -196 50 -307 50 -515 0 -208 -11 -319 -50 -515
-99 -495 -351 -955 -721 -1316 -396 -385 -893 -625 -1464 -706 -120 -17 -513
-17 -635 0 -579 82 -1086 329 -1484 726 -374 373 -628 862 -715 1374 -125 735
68 1471 537 2052 406 502 1031 847 1662 919 52 6 109 13 125 15 68 10 455 -4
555 -19z"/>
<path d="M5240 7419 c-325 -31 -640 -137 -910 -308 -107 -67 -206 -147 -319
-256 -180 -175 -304 -345 -411 -567 -333 -690 -243 -1491 235 -2103 77 -99
265 -282 365 -356 537 -399 1216 -510 1850 -303 657 214 1156 746 1325 1413
43 170 57 292 57 486 0 194 -14 316 -57 486 -145 571 -532 1048 -1060 1306
-337 164 -718 236 -1075 202z"/>
</g>
</svg>
