<svg xmlns="http://www.w3.org/2000/svg" viewBox="0 0 1330.6 304.59"><defs><style>.cls-1{fill:#fff;}.cls-2{fill:#9cd4f0;}</style></defs><g id="Layer_2" data-name="Layer 2"><g id="Layer_1-2" data-name="Layer 1"><polygon class="cls-1" points="0 220.09 0 0 152.05 138.47 151.63 20.71 194.07 20.71 194.07 232.93 44.27 101.02 44.62 220.09 0 220.09"/><path class="cls-1" d="M440.09,121.8c0,61.35-49.35,111.08-110.22,111.08S219.65,183.15,219.65,121.8,269,10.72,329.87,10.72,440.09,60.45,440.09,121.8ZM329.87,51.86c-38.33,0-69.4,31.32-69.4,69.94s31.07,69.94,69.4,69.94,69.39-31.31,69.39-69.94S368.2,51.86,329.87,51.86Z"/><path class="cls-2" d="M384.62,121.8a54.75,54.75,0,1,1-54.75-54.75A54.75,54.75,0,0,1,384.62,121.8Z"/><path class="cls-2" d="M922.25,110.38A36.42,36.42,0,1,1,885.83,74,36.43,36.43,0,0,1,922.25,110.38Z"/><polygon class="cls-1" points="427.93 18.21 542.78 230.43 657.21 18.21 603.68 18.21 542.57 135.14 481.61 18.21 427.93 18.21"/><path class="cls-1" d="M1160.56,105h154.53L1271,177.16s59.62-1.66,59.62,65.75c0,64.49-81.68,61.66-81.68,61.66h-93.2l10.4-44.6,86.13-.42s27.47-.42,27.47-27.05c0-22.88-32.88-22.88-32.88-22.88l-51.18.41,36.2-64.49-71.15-.42Z"/><polygon class="cls-1" points="832.06 219.72 717.21 7.51 602.78 219.72 656.31 219.72 717.42 102.8 778.38 219.72 832.06 219.72"/><polygon class="cls-1" points="1185.32 219.72 1070.48 7.51 956.05 219.72 1009.57 219.72 1070.68 102.8 1131.64 219.72 1185.32 219.72"/></g></g></svg>